<svg width="33" height="32" viewBox="0 0 33 32" fill="none" xmlns="http://www.w3.org/2000/svg">
<path d="M28.1558 17.3937C27.2523 17.6336 26.3214 17.7551 25.3865 17.755C22.5398 17.755 19.8665 16.6483 17.8585 14.6403C16.5399 13.3141 15.5919 11.6655 15.1091 9.85873C14.6262 8.05198 14.6253 6.15021 15.1065 4.34301C15.1666 4.11705 15.1662 3.87927 15.1054 3.6535C15.0446 3.42774 14.9255 3.22194 14.76 3.05675C14.5945 2.89155 14.3885 2.77277 14.1627 2.71232C13.9368 2.65187 13.699 2.65188 13.4732 2.71234C11.2107 3.31525 9.14659 4.50251 7.48784 6.15501C2.29051 11.3523 2.29051 19.8123 7.48784 25.0123C8.72321 26.2546 10.1927 27.2395 11.8112 27.9101C13.4298 28.5807 15.1652 28.9236 16.9172 28.919C18.6687 28.9239 20.4037 28.5813 22.0218 27.9109C23.64 27.2405 25.109 26.2558 26.3438 25.0137C27.9976 23.3546 29.1854 21.2894 29.7878 19.0257C29.8477 18.7998 29.8472 18.5622 29.7864 18.3366C29.7256 18.111 29.6067 17.9053 29.4415 17.7401C29.2762 17.5748 29.0705 17.4559 28.8449 17.3951C28.6193 17.3343 28.3817 17.3338 28.1558 17.3937ZM24.4598 23.1283C23.4718 24.1218 22.2965 24.9094 21.0021 25.4457C19.7076 25.9819 18.3196 26.2561 16.9185 26.2523C15.5169 26.2558 14.1285 25.9814 12.8336 25.445C11.5387 24.9085 10.363 24.1207 9.37451 23.127C5.21718 18.9683 5.21718 12.2003 9.37451 8.04168C10.1779 7.23924 11.1053 6.57156 12.1212 6.06434C11.9725 7.98309 12.2398 9.91132 12.9048 11.7173C13.5698 13.5232 14.6169 15.1643 15.9745 16.5283C17.3356 17.8902 18.9762 18.9402 20.7829 19.6057C22.5896 20.2712 24.5193 20.5365 26.4385 20.383C25.9285 21.3972 25.2607 22.3238 24.4598 23.1283Z" fill="black"/>
</svg>

